<?xml version="1.0" standalone="no"?>
<!DOCTYPE svg PUBLIC "-//W3C//DTD SVG 20010904//EN"
 "http://www.w3.org/TR/2001/REC-SVG-20010904/DTD/svg10.dtd">
<svg version="1.0" xmlns="http://www.w3.org/2000/svg"
 width="500.000000pt" height="500.000000pt" viewBox="0 0 500.000000 500.000000"
 preserveAspectRatio="xMidYMid meet">

<g transform="translate(0.000000,500.000000) scale(0.100000,-0.100000)"
fill="#000000" stroke="none">
<path d="M440 3616 l0 -894 35 -4 c19 -2 40 -1 45 2 6 4 11 314 12 856 l3 849
1890 0 1890 0 5 -555 5 -555 43 -3 42 -3 0 600 0 601 -1985 0 -1985 0 0 -894z"/>
<path d="M1832 4053 l-19 -28 27 -26 c26 -24 30 -25 60 -13 18 8 37 11 44 7 6
-3 6 -1 -1 8 -7 7 -13 22 -13 34 0 51 -66 63 -98 18z"/>
<path d="M1778 4013 c7 -3 16 -2 19 1 4 3 -2 6 -13 5 -11 0 -14 -3 -6 -6z"/>
<path d="M1738 4003 c7 -3 16 -2 19 1 4 3 -2 6 -13 5 -11 0 -14 -3 -6 -6z"/>
<path d="M1698 3993 c7 -3 16 -2 19 1 4 3 -2 6 -13 5 -11 0 -14 -3 -6 -6z"/>
<path d="M1658 3983 c7 -3 16 -2 19 1 4 3 -2 6 -13 5 -11 0 -14 -3 -6 -6z"/>
<path d="M1618 3973 c7 -3 16 -2 19 1 4 3 -2 6 -13 5 -11 0 -14 -3 -6 -6z"/>
<path d="M1960 3977 c0 -2 15 -16 33 -33 l32 -29 -29 33 c-28 30 -36 37 -36
29z"/>
<path d="M1578 3963 c7 -3 16 -2 19 1 4 3 -2 6 -13 5 -11 0 -14 -3 -6 -6z"/>
<path d="M1457 3938 c-43 -11 -76 -22 -74 -25 5 -4 169 36 176 43 8 8 -24 2
-102 -18z"/>
<path d="M1348 3903 c7 -3 16 -2 19 1 4 3 -2 6 -13 5 -11 0 -14 -3 -6 -6z"/>
<path d="M1308 3893 c7 -3 16 -2 19 1 4 3 -2 6 -13 5 -11 0 -14 -3 -6 -6z"/>
<path d="M1268 3883 c7 -3 16 -2 19 1 4 3 -2 6 -13 5 -11 0 -14 -3 -6 -6z"/>
<path d="M1228 3873 c7 -3 16 -2 19 1 4 3 -2 6 -13 5 -11 0 -14 -3 -6 -6z"/>
<path d="M1036 3854 c-9 -8 -16 -19 -16 -23 0 -17 27 -40 50 -43 20 -2 27 3
36 27 10 27 8 31 -14 42 -31 17 -37 16 -56 -3z"/>
<path d="M1178 3863 c6 -2 18 -2 25 0 6 3 1 5 -13 5 -14 0 -19 -2 -12 -5z"/>
<path d="M3125 3860 c-242 -32 -434 -155 -519 -333 -97 -202 -82 -424 41 -610
92 -138 209 -236 553 -462 187 -123 241 -165 320 -244 106 -107 142 -168 166
-283 28 -134 -10 -274 -98 -358 -150 -146 -491 -172 -734 -55 -164 79 -251
205 -285 414 l-12 72 -31 -3 -31 -3 -8 -125 c-12 -180 -4 -364 18 -396 29 -45
169 -95 365 -130 118 -22 422 -25 525 -6 291 54 497 213 569 442 32 100 41
198 27 290 -40 263 -170 416 -566 665 -450 283 -556 382 -610 569 -45 153 29
321 172 394 153 78 382 75 559 -9 123 -58 204 -164 219 -286 6 -47 10 -53 30
-53 30 0 33 20 38 271 l4 186 -141 21 c-267 41 -431 50 -571 32z"/>
<path d="M1138 3853 c7 -3 16 -2 19 1 4 3 -2 6 -13 5 -11 0 -14 -3 -6 -6z"/>
<path d="M1622 3813 c3 -15 18 -19 83 -25 102 -9 160 -38 189 -93 19 -37 21
-59 24 -290 2 -229 1 -251 -15 -264 -17 -13 -17 -13 -1 -8 17 6 18 -20 18
-423 0 -331 -3 -430 -13 -433 -9 -4 -9 -6 1 -6 14 -1 17 -207 3 -229 -6 -11
-24 -10 -96 2 -48 9 -90 17 -92 20 -3 2 15 44 39 93 33 68 49 89 68 95 24 6
24 6 3 7 -27 1 -27 -1 -8 45 22 52 10 44 -14 -9 -11 -25 -24 -45 -30 -45 -5 0
-7 -8 -5 -17 4 -22 -67 -169 -81 -166 -5 0 -32 4 -60 7 l-50 5 45 -10 c25 -5
52 -13 60 -16 8 -3 19 -5 23 -4 12 2 176 -27 187 -34 26 -16 0 -39 -112 -99
-105 -55 -125 -63 -137 -51 -15 14 -15 12 34 130 9 22 13 36 8 30 -5 -5 -20
-35 -33 -65 -47 -107 -58 -106 -133 10 -33 50 -61 90 -64 90 -5 0 -4 -1 64
-108 40 -62 51 -87 45 -100 -10 -19 -5 -43 12 -54 17 -11 61 -9 73 3 8 8 41 2
119 -20 59 -17 111 -34 116 -39 11 -11 -18 -106 -54 -174 -51 -96 -155 -177
-280 -217 -34 -11 -38 -16 -38 -45 0 -18 3 -35 6 -38 8 -9 116 19 204 52 187
73 350 224 426 397 49 111 70 261 74 535 0 12 11 18 38 21 l37 4 -37 1 -38 2
0 71 0 71 48 -40 c97 -82 108 -103 57 -115 -18 -4 -18 -5 3 -6 40 -2 25 -34
-32 -71 -30 -19 -53 -36 -51 -38 2 -2 28 13 58 33 47 31 58 35 77 25 12 -6 34
-8 51 -5 34 8 20 19 312 -254 146 -137 197 -190 197 -207 0 -28 40 -57 64 -48
9 3 22 17 29 29 8 16 75 55 205 119 175 87 197 95 233 90 47 -8 79 14 79 56 0
30 -36 67 -61 62 -10 -2 -22 11 -34 38 -10 22 -20 38 -22 36 -3 -2 3 -18 11
-35 32 -60 15 -67 -48 -19 -22 18 -78 63 -123 101 -73 61 -82 71 -77 95 4 19
-1 36 -16 55 -21 26 -22 26 -56 12 l-35 -15 -124 85 c-199 136 -204 140 -205
150 0 6 -8 11 -19 11 -10 0 -17 -6 -14 -12 2 -6 -57 -64 -132 -127 -124 -106
-138 -115 -161 -107 -17 7 -32 6 -45 -1 -21 -11 -21 -11 -117 70 -48 41 -52
47 -52 88 0 32 7 55 26 81 l26 37 -26 -30 -26 -30 -1 335 c0 184 -1 344 -1
355 -1 11 -1 37 0 59 2 36 4 38 27 32 35 -9 79 34 69 67 -9 31 -11 32 -55 31
l-39 -1 0 131 c0 191 26 228 172 244 48 5 64 11 66 25 3 16 -22 17 -423 17
-401 0 -426 -1 -423 -17z m1304 -1385 c141 -96 164 -116 164 -138 0 -14 7 -36
16 -49 14 -19 23 -22 54 -18 36 5 45 -1 161 -95 68 -56 124 -105 123 -109 -1
-5 -2 -23 -2 -39 -2 -30 -9 -34 -179 -116 -183 -88 -226 -103 -237 -86 -3 6
19 103 50 217 30 114 54 209 51 211 -2 2 -16 -42 -32 -99 -71 -261 -89 -317
-101 -317 -7 0 -19 -3 -27 -6 -9 -3 -98 73 -251 216 l-236 221 0 43 c0 42 1
44 133 159 72 64 136 116 140 116 5 1 82 -49 173 -111z m-1011 -562 c-9 -111
-10 -112 -79 -92 -31 9 -81 23 -111 32 -61 17 -70 36 -27 53 15 6 70 33 122
61 54 28 97 45 99 39 2 -6 0 -48 -4 -93z"/>
<path d="M1130 3799 c26 -17 90 -50 90 -45 0 5 -90 56 -99 56 -3 0 1 -5 9 -11z"/>
<path d="M1110 3746 c0 -2 8 -10 18 -17 15 -13 16 -12 3 4 -13 16 -21 21 -21
13z"/>
<path d="M1260 3726 c0 -2 7 -7 16 -10 8 -3 12 -2 9 4 -6 10 -25 14 -25 6z"/>
<path d="M1014 3550 c-32 -13 -54 -50 -54 -90 0 -82 -32 -130 -86 -130 -31 0
-11 -42 26 -54 40 -13 58 -51 59 -123 1 -55 32 -91 90 -104 56 -12 83 -4 79
24 -2 13 -11 23 -23 25 -54 8 -64 13 -74 43 -6 18 -11 51 -11 74 0 28 -7 51
-21 69 -20 26 -21 28 -3 47 10 12 21 44 25 80 8 69 29 99 71 99 23 0 28 4 28
25 0 23 -4 25 -42 24 -24 0 -53 -4 -64 -9z"/>
<path d="M1260 3535 c0 -21 5 -25 28 -25 39 0 59 -25 67 -85 8 -58 24 -105 36
-105 15 0 10 -22 -8 -42 -10 -12 -20 -45 -24 -84 -8 -75 -22 -95 -68 -96 -28
-1 -32 -4 -29 -27 2 -19 9 -26 23 -25 11 1 32 2 47 2 15 1 39 13 54 25 22 20
29 36 35 92 9 75 26 101 73 113 42 11 42 43 0 54 -44 11 -66 40 -71 95 -9 98
-41 133 -123 133 -36 0 -40 -2 -40 -25z"/>
<path d="M2420 3519 c0 -5 5 -7 10 -4 6 3 10 8 10 11 0 2 -4 4 -10 4 -5 0 -10
-5 -10 -11z"/>
<path d="M1620 3516 c0 -3 9 -10 20 -16 11 -6 20 -8 20 -6 0 3 -9 10 -20 16
-11 6 -20 8 -20 6z"/>
<path d="M1698 3498 c-33 -11 -37 -44 -12 -88 15 -25 20 -27 52 -19 20 4 39
15 44 23 5 9 16 16 25 16 15 0 15 1 2 13 -9 6 -23 24 -32 40 -18 29 -35 32
-79 15z"/>
<path d="M1868 3423 c7 -3 16 -2 19 1 4 3 -2 6 -13 5 -11 0 -14 -3 -6 -6z"/>
<path d="M3133 3371 c-17 -27 -2 -66 29 -75 17 -4 29 1 46 20 21 24 21 28 9
48 -19 29 -68 33 -84 7z"/>
<path d="M3417 3367 c-15 -23 -14 -24 13 -40 26 -16 28 -15 46 4 14 15 16 24
8 37 -17 27 -49 26 -67 -1z"/>
<path d="M2438 3363 c7 -3 16 -2 19 1 4 3 -2 6 -13 5 -11 0 -14 -3 -6 -6z"/>
<path d="M1666 3285 c-3 -9 -6 -22 -5 -28 0 -7 5 -1 10 12 5 13 8 26 5 28 -2
2 -6 -3 -10 -12z"/>
<path d="M3462 3260 c0 -14 2 -19 5 -12 2 6 2 18 0 25 -3 6 -5 1 -5 -13z"/>
<path d="M1646 3225 c-3 -9 -6 -22 -5 -28 0 -7 5 -1 10 12 5 13 8 26 5 28 -2
2 -6 -3 -10 -12z"/>
<path d="M3172 3204 c-7 -8 -8 -14 -3 -14 10 0 25 19 20 25 -2 1 -10 -3 -17
-11z"/>
<path d="M3472 3190 c0 -14 2 -19 5 -12 2 6 2 18 0 25 -3 6 -5 1 -5 -13z"/>
<path d="M1626 3165 c-3 -9 -6 -22 -5 -28 0 -7 5 -1 10 12 5 13 8 26 5 28 -2
2 -6 -3 -10 -12z"/>
<path d="M4454 3147 c-59 -156 -252 -743 -245 -750 5 -5 19 -7 32 -5 22 3 35
35 151 373 70 204 127 376 127 383 1 16 -58 16 -65 -1z"/>
<path d="M3482 3110 c0 -19 2 -27 5 -17 2 9 2 25 0 35 -3 9 -5 1 -5 -18z"/>
<path d="M1843 3109 c-35 -22 -46 -37 -15 -20 22 13 58 40 52 41 -3 0 -20 -10
-37 -21z"/>
<path d="M1700 3024 l-75 -45 -22 26 c-13 14 -23 22 -23 18 0 -5 -10 -13 -22
-18 -33 -15 -44 -39 -32 -72 7 -21 17 -29 40 -31 19 -2 36 3 44 12 17 22 24
20 67 -16 35 -29 35 -28 -5 12 -24 23 -41 47 -39 53 2 6 33 29 69 52 62 37 87
55 77 55 -2 0 -38 -21 -79 -46z"/>
<path d="M3492 3040 c0 -14 2 -19 5 -12 2 6 2 18 0 25 -3 6 -5 1 -5 -13z"/>
<path d="M2259 3023 c-13 -16 -12 -17 4 -4 9 7 17 15 17 17 0 8 -8 3 -21 -13z"/>
<path d="M4008 2962 l-158 -76 0 -42 0 -42 143 -94 c198 -132 187 -127 187
-80 0 39 -1 40 -125 122 -69 46 -125 87 -125 91 0 5 17 16 38 24 20 9 79 34
130 58 l92 42 0 37 c0 24 -5 38 -12 37 -7 0 -84 -35 -170 -77z"/>
<path d="M3501 2954 c0 -11 3 -14 6 -6 3 7 2 16 -1 19 -3 4 -6 -2 -5 -13z"/>
<path d="M4552 2934 c3 -38 7 -41 125 -119 67 -44 120 -84 119 -90 -1 -5 -61
-35 -132 -66 l-129 -56 -3 -37 c-2 -25 1 -36 10 -36 7 0 83 32 170 71 l156 71
4 39 c2 22 1 43 -2 48 -7 11 -284 199 -304 207 -15 6 -17 1 -14 -32z"/>
<path d="M3489 2917 c-9 -7 -21 -22 -27 -34 -10 -19 -8 -24 14 -42 33 -26 37
-26 58 -2 34 37 -6 107 -45 78z"/>
<path d="M1740 2845 c13 -14 26 -25 28 -25 3 0 -5 11 -18 25 -13 14 -26 25
-28 25 -3 0 5 -11 18 -25z"/>
<path d="M2392 2823 c-7 -3 -18 -17 -26 -31 -25 -52 26 -90 81 -61 56 30 5
116 -55 92z"/>
<path d="M1805 2790 c10 -11 20 -20 23 -20 3 0 -3 9 -13 20 -10 11 -20 20 -23
20 -3 0 3 -9 13 -20z"/>
<path d="M1260 2740 c0 -6 -42 -131 -94 -278 -52 -147 -96 -274 -98 -282 -2
-11 6 -15 27 -15 34 0 28 -12 165 383 l70 202 -35 0 c-19 0 -35 -5 -35 -10z"/>
<path d="M2278 2743 c7 -3 16 -2 19 1 4 3 -2 6 -13 5 -11 0 -14 -3 -6 -6z"/>
<path d="M2311 2643 c-25 -36 -26 -41 -6 -18 26 30 49 65 42 65 -2 0 -18 -21
-36 -47z"/>
<path d="M870 2579 l-145 -69 -3 -37 -3 -38 147 -70 c81 -39 151 -71 156 -73
4 -2 8 10 8 27 0 30 -6 34 -115 88 -63 32 -115 61 -115 66 0 4 52 32 115 62
110 51 115 55 115 84 0 17 -3 31 -7 30 -5 0 -73 -32 -153 -70z"/>
<path d="M1370 2617 c0 -31 4 -34 115 -86 64 -30 118 -58 121 -62 2 -5 -49
-34 -116 -65 -118 -56 -120 -57 -120 -91 l0 -33 33 13 c17 8 85 41 150 73
l117 59 0 40 c0 46 19 33 -187 131 l-113 53 0 -32z"/>
<path d="M426 2614 c-30 -30 -9 -84 33 -84 10 0 26 9 36 20 14 16 27 19 54 15
l36 -4 -35 12 c-20 6 -45 22 -58 35 -26 26 -45 28 -66 6z"/>
<path d="M2799 2593 c-13 -16 -12 -17 4 -4 16 13 21 21 13 21 -2 0 -10 -8 -17
-17z"/>
<path d="M294 2406 c-14 -36 0 -51 46 -51 44 0 230 -69 230 -85 0 -4 -21 -10
-47 -13 -27 -4 -111 -18 -188 -32 -146 -26 -205 -31 -205 -17 0 5 -12 14 -26
21 -52 23 -101 -37 -70 -84 11 -17 26 -25 45 -25 28 0 61 26 61 48 0 6 15 13
33 16 17 3 123 22 235 41 l202 36 81 -36 c45 -20 84 -34 86 -31 3 3 -10 11
-28 19 -19 8 -81 34 -139 59 -58 25 -134 56 -169 69 -45 17 -69 32 -80 51 -17
30 -58 38 -67 14z"/>
<path d="M4738 2265 c-12 -27 -19 -30 -113 -44 -46 -7 -64 -5 -81 5 -19 13
-24 12 -47 -10 -17 -16 -43 -26 -83 -31 -31 -4 -67 -11 -78 -15 -25 -11 63 -2
113 10 25 7 39 5 57 -7 23 -15 26 -14 49 7 16 15 47 26 93 34 63 11 72 10 92
-6 27 -22 54 -23 74 -2 33 32 8 84 -40 84 -16 0 -28 -8 -36 -25z"/>
<path d="M1706 2232 c-3 -5 8 -6 25 -4 16 2 29 6 29 8 0 8 -49 4 -54 -4z"/>
<path d="M3406 2197 c3 -10 9 -15 12 -12 3 3 0 11 -7 18 -10 9 -11 8 -5 -6z"/>
<path d="M3426 2157 c3 -10 9 -15 12 -12 3 3 0 11 -7 18 -10 9 -11 8 -5 -6z"/>
<path d="M4922 2138 c-6 -6 -12 -20 -12 -30 0 -24 -82 -78 -119 -78 -16 0 -32
-4 -35 -8 -4 -7 -248 31 -408 62 -40 8 -37 -19 5 -40 l32 -17 -19 22 c-11 11
-16 21 -13 21 4 0 93 -16 199 -35 132 -24 197 -40 205 -51 16 -22 57 -14 61
13 4 27 78 77 116 77 36 1 56 28 40 54 -14 22 -36 26 -52 10z"/>
<path d="M650 2099 c-137 -35 -159 -38 -192 -28 -43 14 -68 1 -68 -33 0 -33
-40 -59 -82 -52 -31 5 -39 2 -53 -20 -16 -24 -16 -28 -1 -51 9 -14 25 -25 36
-25 24 0 50 26 50 51 0 31 50 68 81 62 20 -4 30 1 42 17 12 17 51 31 186 65
95 23 175 45 178 49 11 11 -17 5 -177 -35z"/>
<path d="M692 1998 c-89 -81 -130 -112 -149 -113 -52 0 -57 -65 -5 -73 21 -3
48 29 34 42 -4 4 52 63 123 131 72 68 128 124 125 125 -3 0 -61 -50 -128 -112z"/>
<path d="M1508 2093 c7 -3 16 -2 19 1 4 3 -2 6 -13 5 -11 0 -14 -3 -6 -6z"/>
<path d="M1558 2083 c7 -3 16 -2 19 1 4 3 -2 6 -13 5 -11 0 -14 -3 -6 -6z"/>
<path d="M4410 2010 c14 -10 89 -56 167 -102 90 -52 143 -89 143 -99 0 -38 61
-52 68 -16 5 25 -18 49 -41 43 -13 -3 -75 29 -184 95 -160 96 -205 119 -153
79z"/>
<path d="M4440 1861 c-19 -36 14 -70 53 -55 39 14 24 74 -18 74 -14 0 -29 -8
-35 -19z"/>
<path d="M440 1245 l0 -495 1985 0 1985 0 0 461 0 460 -42 -3 -43 -3 -3 -412
-2 -413 -1895 0 -1895 0 0 450 0 450 -45 0 -45 0 0 -495z"/>
</g>
</svg>
